<svg width="433" height="41" viewBox="0 0 433 41" fill="none" xmlns="http://www.w3.org/2000/svg">
<path d="M161.111 17.3265H272.611" stroke="#B0B1C4" stroke-linecap="round" stroke-linejoin="round"/>
<path d="M321 17.3265H432.5" stroke="#B0B1C4" stroke-linecap="round" stroke-linejoin="round"/>
<rect x="161" y="29.5718" width="8.2326" height="11.4286" fill="#A3E9FF"/>
<rect x="170.262" y="27.1228" width="8.2326" height="13.8776" fill="#A3E9FF"/>
<rect x="198.047" y="22.2249" width="8.2326" height="18.7755" fill="#A3E9FF"/>
<rect x="207.309" y="24.6738" width="8.2326" height="16.3265" fill="#A3E9FF"/>
<rect x="216.57" y="23.8575" width="8.2326" height="17.1429" fill="#A3E9FF"/>
<rect x="225.832" y="27.1228" width="8.2326" height="13.8776" fill="#A3E9FF"/>
<rect x="244.355" y="18.9596" width="8.2326" height="22.0408" fill="#A3E9FF"/>
<rect x="253.617" y="17.3269" width="8.2326" height="23.6735" fill="#A3E9FF"/>
<rect x="262.878" y="22.2249" width="8.2326" height="18.7755" fill="#A3E9FF"/>
<rect x="321.889" y="29.5718" width="8.2326" height="11.4286" fill="#A3E9FF"/>
<rect x="331.15" y="27.1228" width="8.2326" height="13.8776" fill="#A3E9FF"/>
<rect x="358.936" y="22.2249" width="8.2326" height="18.7755" fill="#A3E9FF"/>
<rect x="368.197" y="24.6738" width="8.2326" height="16.3265" fill="#A3E9FF"/>
<rect x="377.459" y="23.8575" width="8.2326" height="17.1429" fill="#A3E9FF"/>
<rect x="386.721" y="27.1228" width="8.2326" height="13.8776" fill="#A3E9FF"/>
<rect x="405.244" y="18.9596" width="8.2326" height="22.0408" fill="#A3E9FF"/>
<rect x="414.506" y="17.3269" width="8.2326" height="23.6735" fill="#A3E9FF"/>
<rect x="423.767" y="22.2249" width="8.2326" height="18.7755" fill="#A3E9FF"/>
<rect x="1.19922" y="21.6896" width="8.28412" height="19.3103" fill="#A3E9FF"/>
<rect x="10.5186" y="17.5514" width="8.28412" height="23.4483" fill="#A3E9FF"/>
<rect x="19.8379" y="31.3452" width="8.28412" height="9.65517" fill="#A3E9FF"/>
<rect x="29.1582" y="28.5861" width="8.28412" height="12.4138" fill="#A3E9FF"/>
<rect x="75.7559" y="28.5861" width="8.28412" height="12.4138" fill="#A3E9FF"/>
<rect x="38.4775" y="9.27563" width="8.28412" height="31.7241" fill="#A3E9FF"/>
<rect x="47.7979" y="13.4139" width="8.28412" height="27.5862" fill="#A3E9FF"/>
<rect x="57.1172" y="12.0348" width="8.28412" height="28.9655" fill="#A3E9FF"/>
<rect x="66.4365" y="17.5514" width="8.28412" height="23.4483" fill="#A3E9FF"/>
<rect x="85.0762" y="3.7583" width="8.28412" height="37.2414" fill="#A3E9FF"/>
<rect x="94.3955" y="1" width="8.28412" height="40" fill="#A3E9FF"/>
<rect x="103.715" y="9.27563" width="8.28412" height="31.7241" fill="#A3E9FF"/>
<path d="M1 1H112.5" stroke="#B0B1C4" stroke-linecap="round" stroke-linejoin="round"/>
</svg>
